<svg width="32" height="32" viewBox="0 0 32 32" fill="none" xmlns="http://www.w3.org/2000/svg">
<path d="M16.0347 2.66667C9.51058 2.66583 3.94909 7.39732 2.90453 13.8372C1.85998 20.2772 5.64079 26.524 11.8307 28.5853C12.4973 28.7053 12.736 28.296 12.736 27.944C12.736 27.628 12.7253 26.7907 12.7213 25.6773C9.02133 26.4773 8.24 23.8933 8.24 23.8933C7.99642 23.0893 7.47277 22.3991 6.764 21.948C5.564 21.1227 6.856 21.1413 6.856 21.1413C7.71024 21.2585 8.46207 21.7646 8.892 22.512C9.25591 23.1737 9.86901 23.6626 10.5951 23.8702C11.3211 24.0777 12.1 23.9867 12.7587 23.6173C12.8206 22.9427 13.1207 22.3121 13.6053 21.8387C10.6533 21.504 7.54933 20.3627 7.54933 15.2653C7.53295 13.9469 8.02253 12.6724 8.91733 11.704C8.51247 10.5564 8.56015 9.29767 9.05067 8.184C9.05067 8.184 10.1667 7.82534 12.7067 9.54534C14.8851 8.94801 17.1842 8.94801 19.3627 9.54534C21.904 7.824 23.0187 8.184 23.0187 8.184C23.5115 9.29715 23.5592 10.5568 23.152 11.704C24.0501 12.6723 24.5393 13.9502 24.5173 15.2707C24.5173 20.3813 21.4107 21.504 18.448 21.8333C19.0871 22.4867 19.4149 23.3831 19.348 24.2947C19.348 26.0733 19.332 27.508 19.332 27.944C19.332 28.3 19.5693 28.7133 20.248 28.5827C26.4353 26.5178 30.2121 20.2706 29.1654 13.8324C28.1187 7.39421 22.5574 2.66518 16.0347 2.66667Z" fill="#888888"/>
</svg>
