<svg width="32" height="32" viewBox="0 0 32 32" fill="none" xmlns="http://www.w3.org/2000/svg">
<path d="M26.66 8.91733C27.8553 8.20278 28.7496 7.07765 29.176 5.752C28.0529 6.4184 26.8241 6.88783 25.5427 7.14C23.7661 5.2607 20.9514 4.80337 18.6712 6.02354C16.3911 7.24371 15.21 9.83932 15.788 12.36C11.1875 12.129 6.90131 9.95589 3.99602 6.38133C2.47981 8.99656 3.25462 12.3397 5.76669 14.0213C4.8583 13.9921 3.97006 13.7462 3.17602 13.304C3.17602 13.328 3.17602 13.352 3.17602 13.376C3.17655 16.1002 5.09652 18.4468 7.76669 18.9867C6.92411 19.2159 6.0403 19.2496 5.18269 19.0853C5.93362 21.415 8.08076 23.011 10.528 23.0587C8.50113 24.6495 5.99799 25.5122 3.42135 25.508C2.96465 25.5087 2.5083 25.4824 2.05469 25.4293C4.67121 27.1107 7.71651 28.0031 10.8267 28C15.1537 28.0297 19.3121 26.3239 22.3717 23.264C25.4313 20.2042 27.1368 16.0457 27.1067 11.7187C27.1067 11.4707 27.1009 11.224 27.0894 10.9787C28.21 10.1688 29.1771 9.16553 29.9454 8.016C28.9014 8.47875 27.794 8.78256 26.66 8.91733Z" fill="#888888"/>
</svg>
